<svg width="39" height="34" viewBox="0 0 39 34" fill="none" xmlns="http://www.w3.org/2000/svg">
<path d="M0.97168 12.3042C1.00368 11.1202 1.06768 8.17617 1.13168 6.44817C1.19568 4.24017 1.67568 2.89617 2.57168 2.06417C3.81968 0.944169 5.29168 0.688169 8.81168 0.496169C16.9397 0.0481686 25.2277 0.112169 35.6277 0.848169C36.7157 0.912169 37.1317 1.13617 37.3237 1.26417C37.7717 1.58417 37.8357 1.93617 37.9637 3.76017C38.0277 4.81617 38.1877 7.63217 38.2517 9.16817C34.6677 8.97617 28.5877 8.68817 23.3077 8.62417C18.0277 8.56017 13.2597 8.65617 12.6837 8.72017C11.5317 8.88017 10.9877 9.42417 10.8277 9.64817L38.3157 14.7362V18.7362L0.97168 12.3042Z" fill="white"/>
<path d="M0.939453 14.2563L38.2835 21.2003C38.2514 22.2243 38.1875 25.4243 38.1235 27.2803C38.0595 29.4883 37.5795 30.8323 36.6835 31.6643C35.4355 32.7843 33.9635 33.0403 30.4435 33.2323C22.3155 33.6803 14.0275 33.6163 3.62745 32.8803C2.53945 32.8163 2.12345 32.5923 1.93145 32.4643C1.48345 32.1443 1.41945 31.7923 1.29145 29.9683C1.19545 28.7203 1.03545 25.1043 0.971453 23.8883C5.80345 24.2083 13.1955 24.4643 19.2115 24.4643C20.7155 24.4643 24.6515 24.4963 25.7075 24.4963C26.5395 24.4963 27.6275 24.2723 28.1715 23.4083L0.939453 18.7683V14.2563Z" fill="white"/>
</svg>
