<svg width="18" height="21" viewBox="0 0 18 21" fill="none" xmlns="http://www.w3.org/2000/svg">
<path d="M8.99976 7.5C8.17133 7.5 7.49976 8.17157 7.49976 9V9.01C7.49976 9.83843 8.17133 10.51 8.99976 10.51H9.00976C9.83818 10.51 10.5098 9.83843 10.5098 9.01V9C10.5098 8.17157 9.83818 7.5 9.00976 7.5H8.99976Z" fill="#747468"/>
<path fill-rule="evenodd" clip-rule="evenodd" d="M14.7069 3.29365C11.5549 0.1417 6.44462 0.1417 3.29267 3.29365C0.140725 6.4456 0.140722 11.5559 3.29267 14.7079L8.99978 20.415L14.7069 14.7079C17.8588 11.5559 17.8588 6.4456 14.7069 3.29365ZM4.70689 4.70786C7.07779 2.33696 10.9218 2.33696 13.2927 4.70786C15.6636 7.07876 15.6636 10.9228 13.2927 13.2937L8.99978 17.5865L4.70689 13.2936C2.33598 10.9227 2.33599 7.07876 4.70689 4.70786Z" fill="#747468"/>
</svg>
