<svg width="56" height="56" viewBox="0 0 56 56" fill="none" xmlns="http://www.w3.org/2000/svg">
<g clip-path="url(#clip0_757_9528)">
<path d="M11.8165 14.8842C11.8464 13.6601 11.8872 11.9937 11.928 10.8921C11.984 8.96009 12.404 7.78409 13.188 7.05609C14.28 6.07609 15.568 5.85209 18.648 5.68409C25.76 5.29209 33.012 5.34809 42.112 5.99209C43.064 6.04809 43.428 6.24409 43.596 6.35609C43.988 6.63609 44.044 6.94409 44.156 8.54009C44.212 9.46409 44.352 11.9281 44.408 13.2721C41.272 13.1041 35.952 12.8521 31.332 12.7961C26.712 12.7401 22.54 12.8241 22.036 12.8801C21.028 13.0201 20.552 13.4961 20.412 13.6921L44.464 18.1441V21.6441L11.788 16.0161C11.7956 15.7349 11.8053 15.3402 11.8165 14.8842Z" fill="white"/>
<path fill-rule="evenodd" clip-rule="evenodd" d="M33.236 42.2521C31.192 42.2521 30.268 43.3441 30.268 45.0521V49.9241H32.312V47.6841H40.04V49.9241H42.084V42.2521H33.236ZM40.04 43.7641V46.2001H32.312V45.5281C32.312 44.4641 32.48 43.7641 33.712 43.7641H40.04Z" fill="white"/>
<path d="M44.548 42.2521V43.7641H49.336V49.9521H51.38V43.7641H56.168V42.2521H44.548Z" fill="white"/>
<path d="M17.22 46.9841C17.22 48.0481 17.444 48.4401 18.62 48.4401H27.104V49.9521H18.144C16.1 49.9521 15.176 49.0281 15.176 47.3201V42.2801H27.104V43.7921H17.22V45.3041H26.712V46.7601H17.22V46.9841Z" fill="white"/>
<path d="M2.68798 44.9121C2.07198 44.8561 1.95998 44.6321 1.95998 44.2681C1.95998 43.9321 2.15598 43.7081 2.63198 43.7081H11.984V42.2241H2.37998C1.00798 42.2241 0.0839844 42.7561 0.0839844 44.2681C0.0839844 45.8081 0.783984 46.3121 2.35198 46.4521L9.93998 47.0961C10.528 47.1521 10.696 47.3481 10.696 47.7681C10.696 48.1601 10.528 48.4121 9.99598 48.4121H0.475984V49.9241H10.164C11.844 49.9241 12.572 49.2521 12.572 47.6841C12.572 46.2561 11.9 45.6681 10.276 45.5281L2.68798 44.9121Z" fill="white"/>
<path d="M44.436 23.8001L11.76 17.7241V21.6721L35.588 25.7321C35.112 26.4881 34.16 26.6841 33.432 26.6841C33.0107 26.6841 32.0657 26.6783 31.0373 26.672C29.81 26.6644 28.464 26.6561 27.748 26.6561C22.484 26.6561 16.016 26.4321 11.788 26.1521C11.8037 26.4509 11.8261 26.9152 11.8519 27.4527C11.9182 28.8295 12.0076 30.6867 12.068 31.4721C12.18 33.0681 12.236 33.3761 12.628 33.6561C12.796 33.7681 13.16 33.9641 14.112 34.0201C23.212 34.6641 30.464 34.7201 37.576 34.3281C40.656 34.1601 41.944 33.9361 43.036 32.9561C43.82 32.2281 44.24 31.0521 44.296 29.1201C44.3306 28.1176 44.3651 26.6669 44.3931 25.4927C44.4105 24.7647 44.4253 24.143 44.436 23.8001Z" fill="white"/>
</g>
<defs>
<clipPath id="clip0_757_9528">
<rect width="56" height="56" fill="white"/>
</clipPath>
</defs>
</svg>
